<svg viewBox="0 0 24 25" fill="#016466" xmlns="http://www.w3.org/2000/svg">
    <path d="M12 0.387207C5.37097 0.387207 0 5.75817 0 12.3872C0 19.0162 5.37097 24.3872 12 24.3872C18.629 24.3872 24 19.0162 24 12.3872C24 5.75817 18.629 0.387207 12 0.387207ZM17.5645 8.55011C17.3855 10.4469 16.6016 15.0533 16.2048 17.1775C16.0355 18.0775 15.7065 18.3775 15.3871 18.4066C14.6903 18.4695 14.1629 17.9469 13.4855 17.5017C12.4306 16.8098 11.8306 16.3791 10.8097 15.7017C9.62419 14.9227 10.3935 14.492 11.0661 13.7904C11.2452 13.6066 14.3129 10.8146 14.371 10.563C14.3806 10.5291 14.3855 10.413 14.3129 10.3501C14.2403 10.2872 14.1387 10.3114 14.0661 10.3259C13.9597 10.3485 12.2726 11.463 9.00484 13.6695C8.52742 13.9985 8.09355 14.1582 7.70323 14.1485C7.27258 14.1388 6.45 13.9066 5.83548 13.7082C5.08548 13.4662 4.48548 13.3356 4.53871 12.9195C4.56452 12.7033 4.8629 12.4824 5.43387 12.2566C8.93064 10.734 11.2629 9.72914 12.4306 9.24205C15.7645 7.85817 16.4565 7.61624 16.9065 7.60656C17.0081 7.60656 17.2258 7.63076 17.371 7.74688C17.4657 7.83018 17.5261 7.94574 17.5403 8.07108C17.5665 8.22933 17.5746 8.39003 17.5645 8.55011Z"
    />
</svg>
