<?xml version="1.0" standalone="no"?>
<!DOCTYPE svg PUBLIC "-//W3C//DTD SVG 20010904//EN"
 "http://www.w3.org/TR/2001/REC-SVG-20010904/DTD/svg10.dtd">
<svg version="1.0" xmlns="http://www.w3.org/2000/svg"
 width="584.000000pt" height="584.000000pt" viewBox="0 0 584.000000 584.000000"
 preserveAspectRatio="xMidYMid meet">
<metadata>
Created by potrace 1.14, written by Peter Selinger 2001-2017
</metadata>
<g transform="translate(0.000000,584.000000) scale(0.100000,-0.100000)"
fill="#000000" stroke="none">
<path d="M2729 5835 c-2 -1 -42 -6 -89 -10 -47 -3 -92 -8 -100 -10 -8 -3 -35
-7 -60 -11 -68 -9 -83 -12 -207 -38 -68 -14 -227 -62 -321 -95 -310 -112 -627
-288 -845 -470 -154 -129 -272 -242 -367 -351 -30 -34 -65 -75 -78 -89 -13
-14 -27 -34 -33 -43 -10 -19 -18 -19 126 -3 17 2 48 6 70 9 175 23 308 30 600
30 262 0 451 -7 520 -20 16 -3 54 -7 85 -9 30 -2 55 -5 55 -5 0 -1 9 -3 20 -5
34 -6 109 -19 125 -21 8 -1 49 -9 90 -18 41 -10 86 -19 100 -22 14 -3 63 -16
110 -30 47 -14 90 -26 95 -27 11 -3 127 -44 160 -57 115 -46 264 -122 350
-179 39 -25 74 -48 79 -50 6 -2 20 -15 33 -27 13 -13 28 -24 32 -24 5 0 46
-37 92 -83 118 -116 210 -238 263 -352 28 -57 74 -175 82 -205 17 -71 35 -163
41 -214 9 -83 9 -327 -1 -401 -4 -33 -9 -71 -11 -85 -1 -14 -6 -45 -9 -70 l-7
-45 27 40 c93 136 254 295 379 372 191 118 405 139 525 52 65 -47 94 -120 94
-239 1 -126 -19 -274 -60 -445 -3 -11 -7 -30 -10 -42 -10 -51 -14 -72 -34
-163 -32 -148 -34 -162 -14 -115 34 82 175 366 210 422 138 221 297 398 444
494 195 128 370 169 521 123 14 -4 15 1 8 42 -5 25 -11 60 -13 77 -4 30 -8 52
-21 110 -3 12 -9 42 -14 67 -5 25 -14 56 -19 70 -5 14 -10 28 -10 33 0 4 -9
33 -18 65 -10 31 -18 59 -19 62 -4 18 -18 58 -25 75 -5 11 -21 52 -35 90 -26
67 -146 317 -182 380 -33 56 -117 190 -130 205 -6 8 -38 51 -71 95 -32 44 -69
92 -83 107 -13 15 -37 44 -54 63 -93 112 -314 317 -429 400 -16 11 -34 25 -41
32 -63 60 -438 272 -595 337 -169 70 -437 150 -586 175 -33 6 -68 12 -79 14
-18 4 -79 12 -175 24 -44 5 -487 13 -491 8z"/>
<path d="M1359 4286 c-2 -2 -74 -7 -159 -11 -85 -3 -171 -8 -190 -10 -41 -3
-154 -15 -190 -20 -62 -8 -127 -18 -145 -21 -23 -5 -68 -13 -110 -20 -16 -3
-58 -11 -93 -19 -34 -8 -75 -17 -92 -20 -16 -3 -40 -9 -54 -15 -15 -5 -26 -7
-26 -4 0 4 -7 1 -16 -7 -15 -13 -48 -82 -44 -95 1 -4 -3 -10 -8 -13 -16 -10
-130 -356 -148 -451 -32 -167 -38 -201 -49 -280 -3 -19 -8 -55 -11 -80 -9 -61
-13 -540 -5 -540 3 0 6 -13 5 -28 -1 -34 19 -180 36 -267 6 -33 13 -69 15 -80
1 -11 17 -72 34 -135 17 -63 33 -122 35 -130 9 -34 90 -247 106 -279 l17 -34
52 103 c29 57 59 109 67 117 8 8 14 21 14 29 0 8 4 14 8 14 5 0 14 10 19 23 9
19 128 183 143 197 3 3 30 34 60 70 71 84 216 229 305 305 39 33 72 63 73 68
2 4 10 7 18 7 8 0 14 4 14 8 0 4 25 25 56 47 31 22 61 45 67 51 7 5 20 13 30
17 42 16 8 23 -108 22 -69 0 -125 -2 -125 -5 0 -11 -411 -11 -444 0 -99 32
-152 198 -109 345 21 70 41 100 89 135 l42 30 154 -5 c158 -6 201 -9 303 -19
33 -4 83 -8 110 -10 28 -3 88 -8 135 -12 283 -24 374 -21 515 16 208 55 236
56 290 9 41 -36 61 -75 73 -144 21 -124 -12 -248 -87 -328 -52 -56 -81 -76
-208 -143 -85 -45 -179 -105 -235 -148 -14 -12 -39 -31 -55 -43 -15 -12 -39
-31 -53 -43 -168 -145 -271 -245 -384 -375 -43 -49 -88 -101 -100 -115 -33
-38 -157 -212 -169 -237 -6 -13 -13 -23 -17 -23 -4 0 -10 -8 -14 -17 -6 -19
-27 -54 -37 -63 -13 -11 -39 -75 -39 -95 0 -12 9 -30 21 -41 30 -27 192 -27
317 1 92 21 226 55 247 64 11 5 72 26 135 46 109 36 302 110 400 154 25 11 48
20 52 21 12 2 213 102 218 109 3 3 11 7 18 9 18 3 159 89 212 129 124 94 279
270 346 393 10 19 22 37 25 40 7 6 81 165 84 180 0 3 11 34 22 70 30 90 40
128 57 230 16 92 20 144 20 295 1 145 -3 184 -23 265 -13 52 -26 100 -31 105
-4 6 -15 30 -24 55 -42 106 -162 252 -280 339 -102 76 -249 150 -379 192 -97
32 -142 42 -307 74 -29 6 -106 15 -165 21 -22 2 -100 6 -173 9 -74 3 -137 7
-142 10 -4 2 -9 3 -11 1z"/>
<path d="M4045 2588 c-62 -35 -165 -184 -253 -365 -48 -99 -142 -333 -157
-393 -1 -3 -5 -12 -8 -20 -4 -8 -17 -53 -31 -100 -13 -47 -29 -97 -35 -112 -6
-16 -9 -28 -6 -28 2 0 -2 -18 -10 -40 -8 -22 -12 -40 -10 -40 2 0 -2 -18 -10
-40 -8 -22 -14 -44 -15 -48 0 -4 -7 -29 -16 -57 -57 -182 -138 -245 -305 -241
-61 2 -84 7 -120 28 -106 63 -162 191 -184 423 -3 32 -8 61 -10 63 -5 5 -11 3
-100 -49 -108 -62 -334 -169 -357 -169 -8 0 -18 -4 -24 -8 -19 -17 -299 -104
-378 -117 -17 -3 -47 -10 -66 -15 -19 -5 -46 -11 -60 -14 -14 -3 -50 -10 -80
-16 -58 -11 -83 -16 -140 -25 -19 -3 -46 -7 -60 -10 -33 -6 -91 -14 -143 -20
-23 -3 -52 -7 -65 -10 -12 -2 -53 -7 -90 -10 -37 -3 -89 -8 -117 -10 -27 -2
-90 -7 -140 -10 -49 -2 -137 -8 -195 -11 -58 -3 -131 -6 -162 -7 l-58 0 18
-28 c71 -111 349 -380 527 -509 33 -24 62 -46 65 -50 3 -3 39 -27 80 -53 41
-25 80 -50 86 -54 19 -14 58 -36 179 -99 175 -91 425 -187 597 -229 35 -9 72
-18 83 -21 11 -2 43 -9 70 -14 28 -6 61 -12 75 -15 14 -3 48 -8 75 -11 28 -4
53 -8 56 -10 41 -24 719 -24 758 0 4 3 34 7 66 11 33 3 75 10 95 15 19 5 51
12 70 15 19 3 43 8 52 11 9 3 25 7 37 9 107 20 339 101 496 172 66 30 128 57
138 60 9 3 17 9 17 14 0 5 5 9 11 9 6 0 38 16 72 36 34 20 78 46 97 56 19 11
42 26 51 34 8 8 20 14 26 14 6 0 13 3 15 8 2 4 21 19 43 34 44 29 48 32 173
132 127 102 210 180 327 308 82 90 105 117 105 128 0 5 4 10 8 10 5 0 23 20
40 44 l32 44 -22 48 c-24 56 -32 101 -32 199 0 72 10 222 19 285 3 19 8 58 11
85 12 104 23 186 29 215 3 14 8 43 10 65 3 22 7 51 9 65 3 14 8 49 11 79 4 30
8 62 10 72 5 24 15 128 20 193 4 65 -12 101 -45 102 -51 2 -115 -58 -204 -191
-47 -71 -136 -221 -136 -230 0 -2 -20 -46 -44 -97 -86 -183 -144 -354 -226
-663 -21 -78 -64 -187 -85 -213 -56 -72 -114 -96 -230 -96 -102 -1 -132 11
-193 72 -41 41 -74 102 -92 172 -7 25 -12 45 -12 45 0 0 -6 29 -12 65 -16 83
-11 359 8 455 2 11 7 51 11 88 3 37 8 78 10 89 3 12 7 44 10 72 3 28 7 67 10
86 25 204 28 302 9 329 -17 23 -48 27 -79 9z"/>
</g>
</svg>
