<svg viewBox="0 0 850 850" fill="none" xmlns="http://www.w3.org/2000/svg">
    <path d="M552.993 534.973H510.578V552.007H552.993V534.973Z" stroke="#016466" stroke-linecap="round"
          stroke-linejoin="round"/>
    <path d="M531.794 512.499H489.379V529.533H531.794V512.499Z" stroke="#016466" stroke-linecap="round"
          stroke-linejoin="round"/>
    <path d="M434.452 374.969H392.037V392.003H434.452V374.969Z" stroke="#016466" stroke-linecap="round"
          stroke-linejoin="round"/>
    <path d="M457.691 353.77H415.276V370.804H457.691V353.77Z" stroke="#016466" stroke-linecap="round"
          stroke-linejoin="round"/>
    <path d="M615.553 161.857H573.138V178.891H615.553V161.857Z" stroke="#016466" stroke-linecap="round"
          stroke-linejoin="round"/>
    <path d="M593.147 139.179H550.732V156.213H593.147V139.179Z" stroke="#016466" stroke-linecap="round"
          stroke-linejoin="round"/>
    <path d="M286.246 148.359H243.831V165.393H286.246V148.359Z" stroke="#016466" stroke-linecap="round"
          stroke-linejoin="round"/>
    <path d="M263.84 125.681H221.425V142.715H263.84V125.681Z" stroke="#016466" stroke-linecap="round"
          stroke-linejoin="round"/>
    <path d="M413.848 221.816H371.433V238.85H413.848V221.816Z" stroke="#016466" stroke-linecap="round"
          stroke-linejoin="round"/>
    <path d="M640.186 325.023H597.771V342.057H640.186V325.023Z" stroke="#016466" stroke-linecap="round"
          stroke-linejoin="round"/>
    <path d="M690.574 474.283H648.159V491.317H690.574V474.283Z" stroke="#016466" stroke-linecap="round"
          stroke-linejoin="round"/>
    <path d="M481.984 374.969H439.569V392.003H481.984V374.969Z" stroke="#016466" stroke-linecap="round"
          stroke-linejoin="round"/>
    <path d="M607.172 441.507C565.947 441.048 523.447 441.048 483.48 441.507" stroke="#016466" stroke-linecap="round"
          stroke-linejoin="round"/>
    <path d="M624.155 441.507H613.802" stroke="#016466" stroke-linecap="round" stroke-linejoin="round"/>
    <path d="M129.2 489.447C170.425 489.906 212.925 489.906 252.892 489.447" stroke="#016466" stroke-linecap="round"
          stroke-linejoin="round"/>
    <path d="M112.285 489.447H122.655" stroke="#016466" stroke-linecap="round" stroke-linejoin="round"/>
    <path d="M411.944 265.659H417.792" stroke="#016466" stroke-linecap="round" stroke-linejoin="round"/>
    <path d="M350.319 265.659H405.314" stroke="#016466" stroke-linecap="round" stroke-linejoin="round"/>
    <path d="M150.314 375.683H107.899V392.717H150.314V375.683Z" stroke="#016466" stroke-linecap="round"
          stroke-linejoin="round"/>
    <path d="M109.786 348.891H103.938" stroke="#016466" stroke-linecap="round" stroke-linejoin="round"/>
    <path d="M171.428 348.891H116.433" stroke="#016466" stroke-linecap="round" stroke-linejoin="round"/>
    <path d="M59.1431 690.251H790.857" stroke="#263238" stroke-linecap="round" stroke-linejoin="round"/>
    <path d="M508.776 707.523C508.776 707.523 497.828 723.01 509.167 728.212C520.506 733.414 620.908 721.412 667.896 720.97C714.884 720.528 740.554 702.78 739.551 697.408C738.548 692.036 727.09 681.802 727.09 681.802L719.1 691.135C719.1 691.135 727.6 693.685 727.362 697.629C727.124 701.573 695.997 714.408 656.846 709.002C617.695 703.596 534.259 720.358 527.646 719.61C521.033 718.862 527.357 704.072 527.357 704.072L508.776 707.523Z"
          fill="#263238"/>
    <path d="M666.4 713.694C604.673 717.978 502.112 716.533 502.112 716.533C449.174 712.674 439.212 695.215 447.474 675.342C460.343 644.742 516.868 608.447 527.17 607.597C544.17 606.22 562.054 612.969 562.054 612.969L573.104 610.64C569.704 601.477 604.639 581.077 620.602 589.883C636.565 598.689 669.562 586.602 679.507 592.807C682.146 594.505 684.413 596.72 686.171 599.318C688.99 603.524 690.97 608.234 692.002 613.19H692.138C694.638 612.519 697.203 612.12 699.788 612C705.262 611.711 712.555 612.544 718.267 617.525C719.727 618.822 721.117 620.195 722.432 621.639C732.734 632.893 745.994 654.16 749.054 666.57C752.624 680.68 728.11 709.393 666.4 713.694Z"
          fill="#999999"/>
    <mask id="mask0_91_2" style="mask-type:luminance" maskUnits="userSpaceOnUse" x="444" y="587" width="306"
          height="130">
        <path d="M666.4 713.694C604.673 717.978 502.112 716.533 502.112 716.533C449.174 712.674 439.212 695.215 447.474 675.342C460.343 644.742 516.868 608.447 527.17 607.597C544.17 606.22 562.054 612.969 562.054 612.969L573.104 610.64C569.704 601.477 604.639 581.077 620.602 589.883C636.565 598.689 669.562 586.602 679.507 592.807C682.146 594.505 684.413 596.72 686.171 599.318C688.99 603.524 690.97 608.234 692.002 613.19H692.138C694.638 612.519 697.203 612.12 699.788 612C705.262 611.711 712.555 612.544 718.267 617.525C719.727 618.822 721.117 620.195 722.432 621.639C732.734 632.893 745.994 654.16 749.054 666.57C752.624 680.68 728.11 709.393 666.4 713.694Z"
              fill="white"/>
    </mask>
    <g mask="url(#mask0_91_2)">
        <path opacity="0.2"
              d="M613.479 599.522C610.47 594.235 648.465 596.734 652.494 599.522C656.523 602.31 656.54 611.048 660.909 608.685C664.394 606.815 677.671 599.624 686.171 599.318C688.99 603.524 690.97 608.234 692.002 613.19C692.002 613.19 639.727 627.963 636.361 624.036C632.995 620.109 645.779 616.845 649.808 608.226C653.837 599.607 637.704 601.97 634.355 602.038C631.006 602.106 616.488 604.792 613.479 599.522Z"
              fill="black"/>
        <path opacity="0.2"
              d="M666.4 713.694C604.673 717.978 502.112 716.533 502.112 716.533C449.174 712.674 439.212 695.215 447.474 675.342C449.514 676.94 453.016 677.654 458.762 676.549C477.649 672.911 488.393 671.908 500.514 683.349C512.635 694.79 526.422 701.743 532.814 699.499C532.814 699.499 533.698 674.237 558.314 656.098C582.93 637.959 588.727 643.11 593.64 638.299C598.553 633.488 601.46 624.699 587.35 619.735C573.24 614.771 566.372 612.935 566.372 612.935C566.372 612.935 581.91 611.728 595.374 617.763C608.838 623.798 620.585 638.163 614.873 641.41C609.161 644.657 623.271 650.437 633.029 648.89C641.665 647.496 670.327 647.343 676.073 647.105C670.973 648.193 648.159 655.316 648.159 660.79C648.159 660.79 655.197 672.35 655.146 685.423C655.095 698.496 670.446 700.162 677.093 695.266C683.74 690.37 685.134 683.655 682.618 670.871C680.102 658.087 673.064 657.135 663.918 659.124C663.918 659.124 675.682 652.035 679.388 654.381C683.094 656.727 693.498 655.741 695.521 666.825C697.544 677.909 690.421 687.004 693.821 690.03C697.221 693.056 716.686 689.69 720.052 683.23C723.418 676.77 721.191 639.761 717.944 639.03C714.697 638.299 698.462 643.229 698.003 643.365C698.772 641.203 700.096 639.279 701.841 637.788C703.586 636.296 705.692 635.289 707.948 634.865C713.932 633.811 721.31 627.929 722.483 621.503C732.785 632.757 746.045 654.024 749.105 666.434C752.624 680.68 728.11 709.393 666.4 713.694Z"
              fill="black"/>
    </g>
    <path d="M666.4 713.694C604.673 717.978 502.112 716.533 502.112 716.533C449.174 712.674 439.212 695.215 447.474 675.342C460.343 644.742 516.868 608.447 527.17 607.597C544.17 606.22 562.054 612.969 562.054 612.969L573.104 610.64C569.704 601.477 604.639 581.077 620.602 589.883C636.565 598.689 669.562 586.602 679.507 592.807C682.146 594.505 684.413 596.72 686.171 599.318C688.99 603.524 690.97 608.234 692.002 613.19H692.138C694.638 612.519 697.203 612.12 699.788 612C705.262 611.711 712.555 612.544 718.267 617.525C719.727 618.822 721.117 620.195 722.432 621.639C732.734 632.893 745.994 654.16 749.054 666.57C752.624 680.68 728.11 709.393 666.4 713.694Z"
          stroke="#263238" stroke-linecap="round" stroke-linejoin="round"/>
    <path d="M562.054 612.969C562.054 612.969 569.789 615.553 589.254 620.194C608.719 624.835 597.992 640.594 583.865 641.444C569.738 642.294 533.477 673.863 532.797 695.3C532.117 716.737 561 713.609 561 713.609"
          stroke="#263238" stroke-linecap="round" stroke-linejoin="round"/>
    <path d="M573.121 610.64C573.121 610.64 600.049 609.501 618.205 620.194C636.361 630.887 684.794 615.927 684.794 615.927"
          stroke="#263238" stroke-linecap="round" stroke-linejoin="round"/>
    <path d="M649.808 660.824C657.9 671.908 654.5 707.37 654.5 707.37C654.5 707.37 707.829 702.508 722.5 690.574C737.171 678.64 724.421 639.812 716.346 638.367C708.271 636.922 678.691 653.786 655.146 657.067"
          stroke="#263238" stroke-linecap="round" stroke-linejoin="round"/>
    <path d="M658.563 660.824C658.563 660.824 675.376 654.432 678.742 660.824C682.108 667.216 688.772 688.84 684.794 696.337C680.816 703.834 665.958 702.44 665.958 702.44"
          stroke="#263238" stroke-linecap="round" stroke-linejoin="round"/>
    <path d="M595.34 593.3C595.34 593.3 616.828 602.361 628.949 602.191C641.07 602.021 655.197 601.12 649.808 608.294C647.407 611.368 645.166 614.562 643.093 617.865"
          stroke="#263238" stroke-linecap="round" stroke-linejoin="round"/>
    <path d="M542.3 673.285C542.3 673.285 566.457 681.785 592.688 677.824C618.919 673.863 623.203 678.589 623.203 678.589V696.337C623.203 696.337 606.203 693.192 595.374 696.337C584.545 699.482 548.964 701.879 532.831 695.3"
          stroke="#263238" stroke-linecap="round" stroke-linejoin="round"/>
    <path d="M535.177 685.457C535.177 685.457 544.068 687.939 566.338 687.99C588.608 688.041 609.467 686.154 609.467 686.154"
          stroke="#263238" stroke-linecap="round" stroke-linejoin="round"/>
    <path d="M529.924 633.335L529.227 625.6C529.192 625.17 529.314 624.742 529.57 624.395C529.827 624.049 530.2 623.806 530.621 623.713L548.675 619.769C548.919 619.703 549.176 619.692 549.425 619.738C549.674 619.783 549.91 619.884 550.115 620.032C550.32 620.18 550.49 620.372 550.611 620.595C550.733 620.817 550.803 621.063 550.817 621.316L551.548 628.626C551.586 629.051 551.472 629.476 551.226 629.824C550.98 630.173 550.618 630.423 550.205 630.53L532.1 634.899C531.852 634.972 531.591 634.987 531.336 634.943C531.082 634.9 530.84 634.799 530.63 634.648C530.421 634.497 530.248 634.301 530.126 634.073C530.003 633.846 529.934 633.593 529.924 633.335Z"
          fill="#016466" stroke="#263238" stroke-linecap="round" stroke-linejoin="round"/>
    <path d="M536.486 624.835L546.244 626.518L544.068 627.81L533.63 626.314L536.486 624.835Z" fill="#263238"/>
    <path d="M556.495 615.4C559.841 612.558 564.014 610.871 568.395 610.589C574.94 610.589 579.989 612.612 579.309 613.003C578.629 613.394 568.225 615.434 566.287 617.78L556.495 615.4Z"
          fill="#263238"/>
    <path d="M459.493 697.442C459.493 697.442 438.311 704.361 449.735 712.436C461.159 720.511 476.646 718.828 489.243 710.736L490.586 703.171C485.638 703.933 480.828 705.41 476.306 707.557C469.744 710.957 454.444 707.557 455.447 705.687C455.874 705.108 456.433 704.637 457.077 704.315C457.721 703.993 458.433 703.828 459.153 703.834L459.493 697.442Z"
          fill="#263238"/>
    <path d="M524.756 716.023C526.32 724.523 585.412 712.283 633.403 703.817C681.394 695.351 723.843 705.16 727.379 697.629C730.915 690.098 739.551 697.408 739.551 697.408C735.359 705.786 728.337 712.41 719.729 716.108C705.653 721.871 639.54 720.528 602.429 728.127C565.318 735.726 499.477 746.827 504.22 717.927L524.756 716.023Z"
          fill="#263238"/>
    <path d="M127.5 618.8C127.5 618.8 126.531 662.609 199.07 694.909C271.609 727.209 468.741 742.9 504.662 629.102L392.955 597.023H243.1L210.12 612L127.5 618.8Z"
          fill="#016466"/>
    <mask id="mask1_91_2" style="mask-type:luminance" maskUnits="userSpaceOnUse" x="127" y="597" width="378"
          height="122">
        <path d="M127.5 618.8C127.5 618.8 126.531 662.609 199.07 694.909C271.609 727.209 468.741 742.9 504.662 629.102L392.955 597.023H243.1L210.12 612L127.5 618.8Z"
              fill="white"/>
    </mask>
    <g mask="url(#mask1_91_2)">
        <path opacity="0.2"
              d="M127.5 618.8C127.5 618.8 126.531 662.609 199.07 694.909C271.609 727.209 468.741 742.9 504.662 629.102L392.955 597.023H243.1L210.12 612L127.5 618.8Z"
              fill="black"/>
    </g>
    <path d="M127.5 618.8C127.5 618.8 126.531 662.609 199.07 694.909C271.609 727.209 468.741 742.9 504.662 629.102L392.955 597.023H243.1L210.12 612L127.5 618.8Z"
          stroke="#263238" stroke-linecap="round" stroke-linejoin="round"/>
    <path d="M212.653 426.445C199.495 438.192 153.867 570.945 159.766 585.429C165.665 599.913 243.066 613.139 243.066 613.139C243.066 613.139 235.416 463.25 235.025 460.751C234.634 458.252 212.653 426.445 212.653 426.445Z"
          fill="#263238"/>
    <path d="M417.656 426.445C430.814 438.192 476.442 570.945 470.543 585.429C464.644 599.913 387.243 613.139 387.243 613.139C387.243 613.139 394.893 463.25 395.284 460.751C395.675 458.252 417.656 426.445 417.656 426.445Z"
          fill="#263238"/>
    <path d="M212.653 426.445C212.653 426.445 243.015 392.139 314.823 390.099C372.521 388.399 412.012 417.044 417.656 426.445C423.3 435.846 391.986 561.153 391.986 561.153L409.513 628.609C409.513 628.609 315.52 659.923 231.574 628.609L242.845 557.379C242.845 557.379 213.282 443.989 212.653 426.445Z"
          fill="#263238"/>
    <g opacity="0.5">
        <path d="M354.875 403.886C354.875 403.886 328.865 432.548 302.464 424.558" stroke="white" stroke-linecap="round"
              stroke-linejoin="round"/>
        <path d="M333.2 456.79C339.281 457.966 345.43 458.761 351.611 459.17" stroke="white" stroke-linecap="round"
              stroke-linejoin="round"/>
        <path d="M258.519 420.716C275.026 435.727 299.319 448.579 325.074 455.005" stroke="white" stroke-linecap="round"
              stroke-linejoin="round"/>
        <path d="M401.71 450.5C396.19 460.748 392.922 472.056 392.122 483.668" stroke="white" stroke-linecap="round"
              stroke-linejoin="round"/>
        <path d="M413.729 432.089C410.954 435.418 408.42 438.94 406.147 442.629" stroke="white" stroke-linecap="round"
              stroke-linejoin="round"/>
        <path d="M416.092 467.789C404.345 472.889 393.533 491.283 393.533 491.283C398.418 500.848 402.199 510.937 404.804 521.356"
              stroke="white" stroke-linecap="round" stroke-linejoin="round"/>
        <path d="M398.225 565.539C398.225 565.539 409.224 563.754 416.092 556.41C422.96 549.066 442.867 551.038 445.689 556.41"
              stroke="white" stroke-linecap="round" stroke-linejoin="round"/>
        <path d="M423.13 547.621C423.13 547.621 430.185 536.877 445.689 544.391" stroke="white" stroke-linecap="round"
              stroke-linejoin="round"/>
        <path d="M218.756 435.387C218.756 435.387 234.243 445.706 235.756 473.875" stroke="white" stroke-linecap="round"
              stroke-linejoin="round"/>
        <path d="M229.296 502.163C225.097 513.774 220.541 525.64 218.263 537.863" stroke="white" stroke-linecap="round"
              stroke-linejoin="round"/>
        <path d="M222.088 473.875C226.185 474.912 235.484 478.805 236.266 483.599C236.64 485.826 233.376 491.164 232.611 493.204"
              stroke="white" stroke-linecap="round" stroke-linejoin="round"/>
        <path d="M205.19 549.1C206.782 548.723 208.444 548.763 210.017 549.216C211.589 549.668 213.018 550.519 214.166 551.684"
              stroke="white" stroke-linecap="round" stroke-linejoin="round"/>
        <path d="M188.19 556.41C190.988 554.548 193.94 552.927 197.013 551.565" stroke="white" stroke-linecap="round"
              stroke-linejoin="round"/>
        <path d="M203.694 561.765C203.694 561.765 204.697 553.384 218.756 556.41C232.815 559.436 266.186 569.772 266.186 569.772"
              stroke="white" stroke-linecap="round" stroke-linejoin="round"/>
    </g>
    <path d="M351.73 401.285C351.73 401.285 335.58 417.18 316.03 417.18C296.48 417.18 277.814 398.769 277.814 398.769C277.814 398.769 287.895 393.754 290.598 383.707C290.77 383.098 290.906 382.479 291.006 381.854C291.737 377.451 290.564 369.954 288.864 362.559C286.195 350.914 282.234 339.252 282.234 339.252H345.389C345.389 339.252 342.397 353.821 340.425 367.251C340.068 369.716 339.728 372.13 339.473 374.425C339.218 376.72 338.946 379.185 338.827 381.225C338.045 395.454 351.73 401.285 351.73 401.285Z"
          fill="white" stroke="#263238" stroke-linecap="round" stroke-linejoin="round"/>
    <path d="M411.179 628.728V636.021C411.177 636.416 411.131 636.809 411.043 637.194C410.768 638.246 410.154 639.178 409.297 639.848C408.44 640.517 407.387 640.887 406.3 640.9H233.206C232.102 640.9 231.03 640.532 230.159 639.855C229.288 639.178 228.667 638.229 228.395 637.16C228.307 636.775 228.261 636.382 228.259 635.987V628.694L411.179 628.728Z"
          fill="#757575"/>
    <mask id="mask2_91_2" style="mask-type:luminance" maskUnits="userSpaceOnUse" x="228" y="628" width="184"
          height="13">
        <path d="M411.179 628.728V636.021C411.177 636.416 411.131 636.809 411.043 637.194C410.768 638.246 410.154 639.178 409.297 639.848C408.44 640.517 407.387 640.887 406.3 640.9H233.206C232.102 640.9 231.03 640.532 230.159 639.855C229.288 639.178 228.667 638.229 228.395 637.16C228.307 636.775 228.261 636.382 228.259 635.987V628.694L411.179 628.728Z"
              fill="white"/>
    </mask>
    <g mask="url(#mask2_91_2)">
        <path opacity="0.2"
              d="M411.179 628.728V636.021C411.177 636.416 411.131 636.809 411.043 637.194H228.395C228.307 636.809 228.261 636.416 228.259 636.021V628.728H411.179Z"
              fill="black"/>
    </g>
    <path d="M411.179 628.728V636.021C411.177 636.416 411.131 636.809 411.043 637.194C410.768 638.246 410.154 639.178 409.297 639.848C408.44 640.517 407.387 640.887 406.3 640.9H233.206C232.102 640.9 231.03 640.532 230.159 639.855C229.288 639.178 228.667 638.229 228.395 637.16C228.307 636.775 228.261 636.382 228.259 635.987V628.694L411.179 628.728Z"
          stroke="#263238" stroke-linecap="round" stroke-linejoin="round"/>
    <path d="M409.462 633.59H229.959C229.121 633.619 228.299 633.354 227.635 632.842C226.971 632.33 226.506 631.603 226.321 630.785L210.732 504.985C210.666 504.502 210.705 504.01 210.846 503.543C210.987 503.076 211.227 502.644 211.55 502.278C211.872 501.912 212.27 501.62 212.715 501.421C213.161 501.222 213.644 501.122 214.132 501.126H425.306C425.794 501.122 426.277 501.222 426.723 501.421C427.168 501.62 427.566 501.912 427.888 502.278C428.211 502.644 428.451 503.076 428.592 503.543C428.733 504.01 428.772 504.502 428.706 504.985L413.117 630.785C412.937 631.609 412.472 632.343 411.803 632.856C411.134 633.37 410.304 633.63 409.462 633.59Z"
          fill="#757575" stroke="#263238" stroke-linecap="round" stroke-linejoin="round"/>
    <path opacity="0.2"
          d="M230.69 630.938L215.39 510.357C215.355 510.015 215.391 509.669 215.496 509.341C215.602 509.013 215.775 508.711 216.003 508.454C216.232 508.196 216.512 507.989 216.825 507.846C217.137 507.702 217.477 507.625 217.821 507.62H421.6C421.945 507.626 422.285 507.702 422.599 507.846C422.913 507.989 423.193 508.196 423.423 508.453C423.653 508.71 423.827 509.012 423.935 509.34C424.042 509.667 424.081 510.014 424.048 510.357L408.748 630.938"
          fill="white"/>
    <path d="M230.69 630.938L215.39 510.357C215.355 510.015 215.391 509.669 215.496 509.341C215.602 509.013 215.775 508.711 216.003 508.454C216.232 508.196 216.512 507.989 216.825 507.846C217.137 507.702 217.477 507.625 217.821 507.62H421.6C421.945 507.626 422.285 507.702 422.599 507.846C422.913 507.989 423.193 508.196 423.423 508.453C423.653 508.71 423.827 509.012 423.935 509.34C424.042 509.667 424.081 510.014 424.048 510.357L408.748 630.938"
          stroke="#263238" stroke-linecap="round" stroke-linejoin="round"/>
    <path d="M321.759 578.323H303.314L324.734 555.883L314.789 573.699L321.759 578.323Z" fill="#016466" stroke="#263238"
          stroke-linecap="round" stroke-linejoin="round"/>
    <path d="M314.534 590.087L337.28 568.14H319.26L325.72 572.9L314.534 590.087Z" fill="#016466" stroke="#263238"
          stroke-linecap="round" stroke-linejoin="round"/>
    <path d="M468.962 705.177L474.402 711.365C474.402 711.365 479.502 722.959 465.409 737.154C451.316 751.349 414.783 754.154 400.571 751.689L391.612 752.896L361.131 746.3C361.131 746.3 345.695 738.752 352.002 725.509C358.309 712.266 468.962 705.177 468.962 705.177Z"
          fill="#016466" stroke="#263238" stroke-linecap="round" stroke-linejoin="round"/>
    <path d="M459.612 734.961C447.831 747.252 410.091 749.7 394.332 746.113C390.031 745.127 374.374 744.566 362.712 740.384C356.422 738.157 351.288 734.876 349.724 729.912C345.202 715.751 385.05 688.806 385.05 688.806C385.05 688.806 410.465 693.702 415.735 694.96C421.873 696.406 428.134 697.271 434.435 697.544C446.522 698.071 454.699 696.456 463.556 700.264C473.586 704.599 473.722 720.239 459.612 734.961Z"
          fill="#757575"/>
    <mask id="mask3_91_2" style="mask-type:luminance" maskUnits="userSpaceOnUse" x="349" y="688" width="122"
          height="60">
        <path d="M459.612 734.961C447.831 747.252 410.091 749.7 394.332 746.113C390.031 745.127 374.374 744.566 362.712 740.384C356.422 738.157 351.288 734.876 349.724 729.912C345.202 715.751 385.05 688.806 385.05 688.806C385.05 688.806 410.465 693.702 415.735 694.96C421.873 696.406 428.134 697.271 434.435 697.544C446.522 698.071 454.699 696.456 463.556 700.264C473.586 704.599 473.722 720.239 459.612 734.961Z"
              fill="white"/>
    </mask>
    <g mask="url(#mask3_91_2)">
        <path opacity="0.2"
              d="M434.367 697.544C425.289 712.368 402.628 740.826 362.712 740.384C356.422 738.157 351.288 734.876 349.724 729.912C345.202 715.751 385.05 688.806 385.05 688.806C385.05 688.806 410.465 693.702 415.735 694.96C421.851 696.402 428.089 697.267 434.367 697.544Z"
              fill="black"/>
    </g>
    <path d="M459.612 734.961C447.831 747.252 410.091 749.7 394.332 746.113C390.031 745.127 374.374 744.566 362.712 740.384C356.422 738.157 351.288 734.876 349.724 729.912C345.202 715.751 385.05 688.806 385.05 688.806C385.05 688.806 410.465 693.702 415.735 694.96C421.873 696.406 428.134 697.271 434.435 697.544C446.522 698.071 454.699 696.456 463.556 700.264C473.586 704.599 473.722 720.239 459.612 734.961Z"
          stroke="#263238" stroke-linecap="round" stroke-linejoin="round"/>
    <path d="M377.825 706.095C377.825 706.095 416.925 717.893 424.269 717.128C431.613 716.363 432.514 722.381 432.514 722.381"
          stroke="#263238" stroke-linecap="round" stroke-linejoin="round"/>
    <path d="M384.098 691.9C384.098 691.9 427.006 701.08 432.191 702.61C435.32 703.508 438.657 703.359 441.694 702.185"
          stroke="#263238" stroke-linecap="round" stroke-linejoin="round"/>
    <path d="M392.054 692.58C391.687 696.752 390.239 700.756 387.855 704.199C385.47 707.642 382.23 710.404 378.454 712.215"
          stroke="#263238" stroke-linecap="round" stroke-linejoin="round"/>
    <path d="M400.078 694.042C399.692 698.091 398.486 702.019 396.534 705.588C394.581 709.156 391.924 712.29 388.722 714.799"
          stroke="#263238" stroke-linecap="round" stroke-linejoin="round"/>
    <path d="M408.629 697C408.629 697 410.941 709.546 397.596 718.777" stroke="#263238" stroke-linecap="round"
          stroke-linejoin="round"/>
    <path d="M417.639 697.986C417.639 697.986 419.662 713.796 406.776 721.905" stroke="#263238" stroke-linecap="round"
          stroke-linejoin="round"/>
    <path d="M427.278 699.363C427.278 699.363 426.938 715.87 416.075 722.942" stroke="#263238" stroke-linecap="round"
          stroke-linejoin="round"/>
    <path d="M434.843 701.471C434.843 701.471 437.699 715.496 426.02 724.047" stroke="#263238" stroke-linecap="round"
          stroke-linejoin="round"/>
    <path d="M388.059 682.295C384.268 707.982 344.658 735.896 344.658 735.896C344.658 735.896 333.693 725.611 330.072 726.036C326.451 726.461 311.372 725.39 311.372 725.39C311.372 725.39 192.1 680.748 177.786 680.51C168.844 680.374 143.072 672.537 130.322 652.205C122.74 640.135 119.765 623.645 127.602 601.766C140.522 565.675 204.221 592.263 266.679 626.756C287.419 638.231 305.779 647.428 320.688 654.432C345.423 666.077 360.468 671.687 360.468 671.687L368.73 668.729L388.059 682.295Z"
          fill="#016466"/>
    <mask id="mask4_91_2" style="mask-type:luminance" maskUnits="userSpaceOnUse" x="122" y="584" width="267"
          height="152">
        <path d="M388.059 682.295C384.268 707.982 344.658 735.896 344.658 735.896C344.658 735.896 333.693 725.611 330.072 726.036C326.451 726.461 311.372 725.39 311.372 725.39C311.372 725.39 192.1 680.748 177.786 680.51C168.844 680.374 143.072 672.537 130.322 652.205C122.74 640.135 119.765 623.645 127.602 601.766C140.522 565.675 204.221 592.263 266.679 626.756C287.419 638.231 305.779 647.428 320.688 654.432C345.423 666.077 360.468 671.687 360.468 671.687L368.73 668.729L388.059 682.295Z"
              fill="white"/>
    </mask>
    <g mask="url(#mask4_91_2)">
        <path opacity="0.2"
              d="M388.059 682.295C384.268 707.982 344.658 735.896 344.658 735.896C344.658 735.896 333.693 725.611 330.072 726.036C326.451 726.461 311.372 725.39 311.372 725.39C311.372 725.39 192.1 680.748 177.786 680.51C168.844 680.374 143.072 672.537 130.322 652.205C145.299 653.31 170.816 655.809 183.022 660.365C183.022 660.365 169.422 663.765 173.162 667.029C176.902 670.293 231.506 676.719 250.716 671.874C268.09 667.505 302.77 655.69 320.722 654.432C345.457 666.077 360.502 671.687 360.502 671.687L368.764 668.729L388.059 682.295Z"
              fill="black"/>
    </g>
    <path d="M388.059 682.295C384.268 707.982 344.658 735.896 344.658 735.896C344.658 735.896 333.693 725.611 330.072 726.036C326.451 726.461 311.372 725.39 311.372 725.39C311.372 725.39 192.1 680.748 177.786 680.51C168.844 680.374 143.072 672.537 130.322 652.205C122.74 640.135 119.765 623.645 127.602 601.766C140.522 565.675 204.221 592.263 266.679 626.756C287.419 638.231 305.779 647.428 320.688 654.432C345.423 666.077 360.468 671.687 360.468 671.687L368.73 668.729L388.059 682.295Z"
          stroke="#263238" stroke-linecap="round" stroke-linejoin="round"/>
    <path d="M282.438 657.475C286.671 656.744 290.938 655.877 295.035 654.789" stroke="#263238" stroke-linecap="round"
          stroke-linejoin="round"/>
    <path d="M169.49 659.736C204.051 662.507 239.632 663.289 274.057 658.75" stroke="#263238" stroke-linecap="round"
          stroke-linejoin="round"/>
    <path d="M166.991 707.557L161.5 713.745C161.5 713.745 156.4 725.339 170.476 739.534C184.552 753.729 221.102 756.534 235.314 754.069L244.29 755.276L274.754 748.731C274.754 748.731 290.258 741.2 283.9 727.94C277.542 714.68 166.991 707.557 166.991 707.557Z"
          fill="#016466" stroke="#263238" stroke-linecap="round" stroke-linejoin="round"/>
    <path d="M250.92 691.186C250.92 691.186 225.505 696.082 220.218 697.323C196.605 702.899 185.215 697.17 172.482 702.644C162.384 706.979 162.282 722.619 176.341 737.341C188.122 749.632 225.862 752.08 241.621 748.493C248.234 746.997 281.741 746.402 286.246 732.275C290.751 718.148 250.92 691.186 250.92 691.186Z"
          fill="#757575" stroke="#263238" stroke-linecap="round" stroke-linejoin="round"/>
    <path d="M258.128 708.475C258.128 708.475 219.028 720.273 211.684 719.508C204.34 718.743 203.439 724.761 203.439 724.761"
          stroke="#263238" stroke-linecap="round" stroke-linejoin="round"/>
    <path d="M251.872 694.229C251.872 694.229 208.947 703.426 203.762 704.939C200.635 705.847 197.297 705.703 194.259 704.531"
          stroke="#263238" stroke-linecap="round" stroke-linejoin="round"/>
    <path d="M243.916 694.96C244.283 699.132 245.731 703.136 248.115 706.579C250.5 710.022 253.74 712.784 257.516 714.595"
          stroke="#263238" stroke-linecap="round" stroke-linejoin="round"/>
    <path d="M235.875 696.422C236.261 700.473 237.469 704.403 239.424 707.971C241.38 711.54 244.042 714.673 247.248 717.179"
          stroke="#263238" stroke-linecap="round" stroke-linejoin="round"/>
    <path d="M227.341 699.363C227.341 699.363 225.012 711.909 238.357 721.14" stroke="#263238" stroke-linecap="round"
          stroke-linejoin="round"/>
    <path d="M218.314 700.4C218.314 700.4 216.291 716.21 229.177 724.319" stroke="#263238" stroke-linecap="round"
          stroke-linejoin="round"/>
    <path d="M208.692 701.743C208.692 701.743 209.015 718.25 219.895 725.322" stroke="#263238" stroke-linecap="round"
          stroke-linejoin="round"/>
    <path d="M201.127 703.8C201.127 703.8 198.271 717.808 209.933 726.376" stroke="#263238" stroke-linecap="round"
          stroke-linejoin="round"/>
    <path d="M505.869 601.528C492.864 565.454 429.233 592.161 366.86 626.773C311.712 657.373 273.139 671.874 273.139 671.874L264.877 668.95L245.565 682.55C249.407 708.22 289.085 736.049 289.085 736.049C289.085 736.049 300.016 725.73 303.654 726.155C307.292 726.58 322.354 725.475 322.354 725.475C322.354 725.475 441.626 680.612 455.855 680.357C470.084 680.102 527 660.263 505.869 601.528Z"
          fill="#016466" stroke="#263238" stroke-linecap="round" stroke-linejoin="round"/>
    <path d="M332.826 694.195C336.226 694.433 339.728 694.569 343.179 694.586" stroke="#263238" stroke-linecap="round"
          stroke-linejoin="round"/>
    <path d="M273.139 671.874C285.6 685.1 306 690.846 323.374 693.226" stroke="#263238" stroke-linecap="round"
          stroke-linejoin="round"/>
    <path d="M413.508 648.482C437.903 653.123 465.035 657.373 489.583 651.644" stroke="#263238" stroke-linecap="round"
          stroke-linejoin="round"/>
    <path d="M394.791 644.402C398.191 645.269 401.693 646.102 405.178 646.799" stroke="#263238" stroke-linecap="round"
          stroke-linejoin="round"/>
    <path d="M340.51 367.2C340.153 369.665 339.813 372.079 339.558 374.374C333.2 380.885 322.558 389.844 312.358 390.15C304.895 390.371 297.058 387.175 290.7 383.656C290.872 383.047 291.008 382.428 291.108 381.803C291.839 377.4 290.666 369.903 288.966 362.508L340.51 367.2Z"
          fill="#263238"/>
    <path d="M357 326.026C357 326.026 361.641 321.657 363.919 323.102C366.197 324.547 368.9 328.593 367.659 332.299C366.418 336.005 361.029 342.499 360.604 346.239C360.179 349.979 357.408 354.263 354.348 351.764C351.288 349.265 357 326.026 357 326.026Z"
          fill="#D9D9D9" stroke="#263238" stroke-linecap="round" stroke-linejoin="round"/>
    <path d="M274.346 326.026C274.346 326.026 269.705 321.657 267.427 323.102C265.149 324.547 262.446 328.593 263.704 332.299C264.962 336.005 270.334 342.499 270.742 346.239C271.15 349.979 273.955 354.263 276.998 351.764C280.041 349.265 274.346 326.026 274.346 326.026Z"
          fill="#D9D9D9" stroke="#263238" stroke-linecap="round" stroke-linejoin="round"/>
    <path d="M314.67 266.39C375.02 266.39 358.7 339.354 347.582 365.16C343.689 374.221 324.445 386.92 314.67 386.92C305.575 386.92 287.47 375.02 283.73 366.52C272.493 340.51 257.159 266.39 314.67 266.39Z"
          fill="#D9D9D9" stroke="#263238" stroke-linecap="round" stroke-linejoin="round"/>
    <path d="M324.904 325.516C324.904 325.516 340.612 320.654 345.474 330.378" stroke="#263238" stroke-linecap="round"
          stroke-linejoin="round"/>
    <path d="M336.6 338.725C336.6 340.578 335.665 342.125 334.492 342.125C333.319 342.125 332.401 340.612 332.401 338.725C332.401 336.838 333.336 335.325 334.492 335.325C335.648 335.325 336.6 336.872 336.6 338.725Z"
          fill="#263238"/>
    <path d="M306.476 325.516C306.476 325.516 290.751 320.654 285.889 330.378" stroke="#263238" stroke-linecap="round"
          stroke-linejoin="round"/>
    <path d="M294.831 338.725C294.831 340.578 295.783 342.125 296.939 342.125C298.095 342.125 299.047 340.612 299.047 338.725C299.047 336.838 298.095 335.325 296.939 335.325C295.783 335.325 294.831 336.872 294.831 338.725Z"
          fill="#263238"/>
    <path d="M308.601 352.512C306.323 354.943 314.211 358.938 315.69 358.938C317.169 358.938 323.17 355.793 323.17 353.94"
          fill="#D9D9D9"/>
    <path d="M308.601 352.512C306.323 354.943 314.211 358.938 315.69 358.938C317.169 358.938 323.17 355.793 323.17 353.94"
          stroke="#263238" stroke-linecap="round" stroke-linejoin="round"/>
    <path d="M339.728 286.943C324.6 291.771 308.344 291.771 293.216 286.943C293.216 286.943 285.073 286.467 281.86 290.564C278.647 294.661 281.86 307.292 282.71 312.443C283.56 317.594 275.638 321.147 276.709 334.152L275.638 339.065C275.638 339.065 266.866 316.727 269.008 298.724C271.15 280.721 280.789 274.72 280.789 274.72C280.789 274.72 285.974 259.182 316.336 259.284C349.061 259.42 352.359 277.134 352.359 277.134C352.359 277.134 372.759 292.434 356.303 340.731L354.603 334.152C355.445 327.755 353.974 321.268 350.455 315.86C347.599 311.695 352.155 299.149 351.101 292.723C350.047 286.297 339.728 286.943 339.728 286.943Z"
          fill="#263238"/>
    <path d="M302.6 364.854C306.704 366.764 311.181 367.739 315.707 367.71C319.98 367.795 324.23 367.074 328.236 365.585"
          fill="#D9D9D9"/>
    <path d="M302.6 364.854C306.704 366.764 311.181 367.739 315.707 367.71C319.98 367.795 324.23 367.074 328.236 365.585"
          stroke="#263238" stroke-linecap="round" stroke-linejoin="round"/>
    <path d="M338.402 292.689C339.71 299.297 342.099 305.644 345.474 311.474C350.574 319.617 356.592 320.45 358.309 330.378C358.309 330.378 373.966 303.96 360.723 280.772C360.723 280.772 356.558 254.456 315.69 254.456C274.822 254.456 255.901 282.931 271.779 326.655C275.624 324.984 278.956 322.321 281.435 318.94C283.914 315.559 285.451 311.581 285.889 307.411C286.717 313.369 285.213 319.416 281.69 324.292C281.69 324.292 302.736 321.181 308.193 303.637C308.193 303.637 306.068 315.299 299.047 320.246C299.047 320.246 306.986 330.276 316.047 314.602C325.108 298.928 330.565 289.544 338.402 292.689Z"
          fill="#263238"/>
    <path opacity="0.2" d="M306.153 296.106C303.603 299.761 300.016 305.405 294.831 304.861" stroke="white"
          stroke-linecap="round" stroke-linejoin="round"/>
    <path opacity="0.2" d="M336.6 280.925C329.715 266.917 314.789 284.087 309.91 290.853" stroke="white"
          stroke-linecap="round" stroke-linejoin="round"/>
    <path opacity="0.2" d="M278.936 284.036C277.248 285.558 275.246 286.69 273.071 287.351" stroke="white"
          stroke-linecap="round" stroke-linejoin="round"/>
    <path opacity="0.2" d="M328.219 267.852C314.33 253.317 294.644 270.215 283.645 279.888" stroke="white"
          stroke-linecap="round" stroke-linejoin="round"/>
    <path opacity="0.2" d="M356.269 284.393C358.644 288.135 360.165 292.355 360.723 296.752" stroke="white"
          stroke-linecap="round" stroke-linejoin="round"/>
    <path opacity="0.2" d="M345.474 278.29C347.681 278.235 349.855 278.826 351.73 279.99" stroke="white"
          stroke-linecap="round" stroke-linejoin="round"/>
    <path opacity="0.2" d="M341.258 270.98C341.258 270.98 344.267 263.007 350.319 268.838" stroke="white"
          stroke-linecap="round" stroke-linejoin="round"/>
    <path d="M387.09 468.792H249.05C244.543 468.792 240.89 472.445 240.89 476.952V482.8C240.89 487.307 244.543 490.96 249.05 490.96H387.09C391.597 490.96 395.25 487.307 395.25 482.8V476.952C395.25 472.445 391.597 468.792 387.09 468.792Z"
          stroke="white" stroke-width="1.35896" stroke-linecap="round" stroke-linejoin="round"/>
    <path d="M302.073 474.861C302.603 474.93 303.14 474.792 303.57 474.476C304.001 474.159 304.293 473.688 304.385 473.161H305.796V486.557H303.705V476.357H302.005L302.073 474.861Z"
          fill="white"/>
    <path d="M308.176 476.391C308.176 475.543 308.513 474.73 309.112 474.131C309.711 473.532 310.524 473.195 311.372 473.195C312.219 473.195 313.032 473.532 313.632 474.131C314.231 474.73 314.568 475.543 314.568 476.391V483.361C314.568 484.208 314.231 485.021 313.632 485.621C313.032 486.22 312.219 486.557 311.372 486.557C310.524 486.557 309.711 486.22 309.112 485.621C308.513 485.021 308.176 484.208 308.176 483.361V476.391ZM310.284 483.497C310.284 484.449 310.692 484.806 311.372 484.806C312.052 484.806 312.46 484.449 312.46 483.497V476.255C312.46 475.303 312.035 474.946 311.372 474.946C310.709 474.946 310.284 475.303 310.284 476.255V483.497Z"
          fill="white"/>
    <path d="M315.758 476.391C315.758 475.971 315.84 475.556 316.001 475.168C316.162 474.78 316.397 474.428 316.694 474.131C316.991 473.834 317.343 473.599 317.731 473.438C318.119 473.277 318.534 473.195 318.954 473.195C319.373 473.195 319.789 473.277 320.177 473.438C320.565 473.599 320.917 473.834 321.214 474.131C321.51 474.428 321.746 474.78 321.907 475.168C322.067 475.556 322.15 475.971 322.15 476.391V483.361C322.15 483.78 322.067 484.196 321.907 484.584C321.746 484.972 321.51 485.324 321.214 485.621C320.917 485.918 320.565 486.153 320.177 486.314C319.789 486.474 319.373 486.557 318.954 486.557C318.534 486.557 318.119 486.474 317.731 486.314C317.343 486.153 316.991 485.918 316.694 485.621C316.397 485.324 316.162 484.972 316.001 484.584C315.84 484.196 315.758 483.78 315.758 483.361V476.391ZM317.849 483.497C317.849 484.449 318.274 484.806 318.954 484.806C319.634 484.806 320.042 484.449 320.042 483.497V476.255C320.042 475.303 319.617 474.946 318.954 474.946C318.291 474.946 317.849 475.303 317.849 476.255V483.497Z"
          fill="white"/>
    <path d="M323.391 475.218C323.391 474.682 323.604 474.167 323.983 473.788C324.363 473.408 324.877 473.195 325.414 473.195C325.95 473.195 326.465 473.408 326.844 473.788C327.224 474.167 327.437 474.682 327.437 475.218V479.621C327.437 480.158 327.224 480.672 326.844 481.052C326.465 481.431 325.95 481.644 325.414 481.644C324.877 481.644 324.363 481.431 323.983 481.052C323.604 480.672 323.391 480.158 323.391 479.621V475.218ZM324.734 479.723C324.734 480.318 324.972 480.573 325.414 480.573C325.856 480.573 326.111 480.318 326.111 479.723V475.133C326.111 474.538 325.839 474.283 325.414 474.283C324.989 474.283 324.734 474.538 324.734 475.133V479.723ZM330.701 473.178H331.942L326.655 486.574H325.414L330.701 473.178ZM330.021 480.131C329.995 479.849 330.028 479.564 330.119 479.295C330.209 479.027 330.354 478.78 330.546 478.57C330.737 478.361 330.969 478.193 331.229 478.079C331.488 477.964 331.769 477.905 332.052 477.905C332.336 477.905 332.616 477.964 332.876 478.079C333.135 478.193 333.368 478.361 333.559 478.57C333.75 478.78 333.896 479.027 333.986 479.295C334.076 479.564 334.11 479.849 334.084 480.131V484.5C334.11 484.783 334.076 485.067 333.986 485.336C333.896 485.605 333.75 485.852 333.559 486.061C333.368 486.271 333.135 486.438 332.876 486.553C332.616 486.667 332.336 486.726 332.052 486.726C331.769 486.726 331.488 486.667 331.229 486.553C330.969 486.438 330.737 486.271 330.546 486.061C330.354 485.852 330.209 485.605 330.119 485.336C330.028 485.067 329.995 484.783 330.021 484.5V480.131ZM331.364 484.619C331.364 485.214 331.619 485.469 332.061 485.469C332.503 485.469 332.741 485.214 332.741 484.619V480.029C332.741 479.434 332.486 479.179 332.061 479.179C331.636 479.179 331.364 479.434 331.364 480.029V484.619Z"
          fill="white"/>
    <path d="M199.818 304.691C226.2 304.691 247.588 283.304 247.588 256.921C247.588 230.539 226.2 209.151 199.818 209.151C173.435 209.151 152.048 230.539 152.048 256.921C152.048 283.304 173.435 304.691 199.818 304.691Z"
          stroke="#263238" stroke-linecap="round" stroke-linejoin="round"/>
    <path d="M236.674 219.3C227.233 210.065 214.668 204.711 201.467 204.298C188.266 203.886 175.392 208.445 165.393 217.073"
          stroke="#263238" stroke-linecap="round" stroke-linejoin="round"/>
    <path d="M248.829 276.131C252.33 267.206 253.33 257.495 251.721 248.044C250.112 238.593 245.956 229.76 239.7 222.496"
          stroke="#263238" stroke-linecap="round" stroke-linejoin="round"/>
    <path d="M237.575 306L247.163 311.712L239.037 292.06C240.374 290.576 241.623 289.015 242.777 287.385"
          stroke="#263238" stroke-linecap="round" stroke-linejoin="round"/>
    <path d="M165.393 296.752C174.09 304.253 184.999 308.708 196.461 309.438C207.923 310.168 219.309 307.134 228.888 300.798L233.614 303.603"
          stroke="#263238" stroke-linecap="round" stroke-linejoin="round"/>
    <path d="M150.926 237.388C147.351 246.354 146.308 256.129 147.908 265.647C149.509 275.165 153.693 284.06 160.004 291.363"
          stroke="#263238" stroke-linecap="round" stroke-linejoin="round"/>
    <path d="M156.264 227.358C155.101 229.053 154.045 230.819 153.102 232.645" stroke="#263238" stroke-linecap="round"
          stroke-linejoin="round"/>
    <path d="M191.233 274.108L174.726 258.213C173.989 257.503 173.564 256.529 173.545 255.506C173.526 254.482 173.914 253.493 174.624 252.756C175.334 252.019 176.308 251.594 177.331 251.575C178.355 251.556 179.344 251.944 180.081 252.654"
          stroke="#263238" stroke-linecap="round" stroke-linejoin="round"/>
    <path d="M218.569 236.419C219.137 235.567 220.02 234.976 221.025 234.775C222.029 234.574 223.072 234.78 223.924 235.348C224.776 235.916 225.368 236.8 225.569 237.804C225.769 238.808 225.563 239.851 224.995 240.703L200.736 276.964C200.425 277.435 200.013 277.831 199.532 278.125C199.05 278.419 198.509 278.603 197.948 278.664H197.608C196.583 278.679 195.593 278.288 194.854 277.576"
          stroke="#263238" stroke-linecap="round" stroke-linejoin="round"/>
    <path d="M183.838 256.292L196.877 268.838L215.39 241.162" stroke="#263238" stroke-linecap="round"
          stroke-linejoin="round"/>
    <path d="M691.9 259.42C691.9 259.42 668.1 256.785 653.531 230.656C638.962 204.527 560.711 213.112 560.711 213.112C560.711 213.112 561.17 222.258 573.274 224.621L564.774 228.701C564.774 228.701 567.256 239.173 589.424 238.238L583.508 244.8C583.508 244.8 592.824 252.399 616.182 249.067L611.779 254.728C611.779 254.728 622.693 262.327 641.223 256.989L639.2 262.174C639.2 262.174 653.242 263.194 661.521 259.573C661.555 259.573 677.569 269.45 691.9 259.42Z"
          fill="white"/>
    <mask id="mask5_91_2" style="mask-type:luminance" maskUnits="userSpaceOnUse" x="560" y="211" width="132"
          height="53">
        <path d="M691.9 259.42C691.9 259.42 668.1 256.785 653.531 230.656C638.962 204.527 560.711 213.112 560.711 213.112C560.711 213.112 561.17 222.258 573.274 224.621L564.774 228.701C564.774 228.701 567.256 239.173 589.424 238.238L583.508 244.8C583.508 244.8 592.824 252.399 616.182 249.067L611.779 254.728C611.779 254.728 622.693 262.327 641.223 256.989L639.2 262.174C639.2 262.174 653.242 263.194 661.521 259.573C661.555 259.573 677.569 269.45 691.9 259.42Z"
              fill="white"/>
    </mask>
    <g mask="url(#mask5_91_2)">
        <path opacity="0.4"
              d="M691.9 259.437C677.518 269.45 661.504 259.59 661.504 259.59C653.225 263.177 639.183 262.191 639.183 262.191L641.155 256.921C622.642 262.276 611.728 254.66 611.728 254.66L616.131 248.999C592.773 252.399 583.457 244.715 583.457 244.715L589.475 238.255C567.375 239.156 564.842 228.701 564.842 228.701L573.342 224.638C561.238 222.258 560.779 213.112 560.779 213.112C560.779 213.112 565.216 221.017 578 220.762C578 220.762 575.858 226.1 588.948 227.086C588.948 227.086 600.015 231.795 608.039 228.276C608.039 228.276 610.725 233.75 620.347 232.815L617.1 237.116C617.1 237.116 618.103 242.76 630.02 239.955L628.32 245.497C628.32 245.497 632.23 250.036 647.564 246.653C647.564 246.653 642.77 249.781 644.351 251.379C645.932 252.977 650.76 253.742 654.942 253.334C654.874 253.3 671.245 266.237 691.9 259.437Z"
              fill="#016466"/>
    </g>
    <path d="M691.9 259.42C691.9 259.42 668.1 256.785 653.531 230.656C638.962 204.527 560.711 213.112 560.711 213.112C560.711 213.112 561.17 222.258 573.274 224.621L564.774 228.701C564.774 228.701 567.256 239.173 589.424 238.238L583.508 244.8C583.508 244.8 592.824 252.399 616.182 249.067L611.779 254.728C611.779 254.728 622.693 262.327 641.223 256.989L639.2 262.174C639.2 262.174 653.242 263.194 661.521 259.573C661.555 259.573 677.569 269.45 691.9 259.42Z"
          stroke="#263238" stroke-linecap="round" stroke-linejoin="round"/>
    <path d="M590.58 218.076C582.709 220.065 577.949 219.436 572.101 222.411C572.101 222.411 577.201 229.381 590.631 228.446"
          fill="white"/>
    <path d="M590.58 218.076C582.709 220.065 577.949 219.436 572.101 222.411C572.101 222.411 577.201 229.381 590.631 228.446"
          stroke="#263238" stroke-linecap="round" stroke-linejoin="round"/>
    <path d="M596.564 231.2C593.177 231.921 589.864 232.957 586.67 234.294C586.67 234.294 588.608 243.355 609.875 239.02"
          stroke="#263238" stroke-linecap="round" stroke-linejoin="round"/>
    <path d="M618.154 241.978L612 245.99C619.224 248.943 627.197 249.538 634.78 247.69" stroke="#263238"
          stroke-linecap="round" stroke-linejoin="round"/>
    <path d="M640.9 247.843C640.9 247.843 634.814 252.127 635.018 252.722C635.222 253.317 647.207 257.822 658.053 251.923"
          fill="white"/>
    <path d="M640.9 247.843C640.9 247.843 634.814 252.127 635.018 252.722C635.222 253.317 647.207 257.822 658.053 251.923"
          stroke="#263238" stroke-linecap="round" stroke-linejoin="round"/>
    <path d="M603.5 220.643C599.777 222.343 588.744 223.941 588.013 225.556C588.013 225.556 591.617 235.654 610.113 229.959"
          fill="white"/>
    <path d="M603.5 220.643C599.777 222.343 588.744 223.941 588.013 225.556C588.013 225.556 591.617 235.654 610.113 229.959"
          stroke="#263238" stroke-linecap="round" stroke-linejoin="round"/>
    <path d="M615.893 232.424C613.08 233.553 610.441 235.076 608.056 236.946C608.056 236.946 615.23 246.908 632.655 238.306"
          fill="white"/>
    <path d="M615.893 232.424C613.08 233.553 610.441 235.076 608.056 236.946C608.056 236.946 615.23 246.908 632.655 238.306"
          stroke="#263238" stroke-linecap="round" stroke-linejoin="round"/>
    <path d="M634.865 238.289C633.33 238.977 631.952 239.972 630.815 241.211C629.678 242.45 628.806 243.909 628.252 245.497C628.252 245.497 636.871 251.073 651.644 245.276"
          fill="white"/>
    <path d="M634.865 238.289C633.33 238.977 631.952 239.972 630.815 241.211C629.678 242.45 628.806 243.909 628.252 245.497C628.252 245.497 636.871 251.073 651.644 245.276"
          stroke="#263238" stroke-linecap="round" stroke-linejoin="round"/>
    <path d="M618.8 224.094C618.8 224.094 608.294 226.338 608.005 228.276C608.005 228.276 616.505 235.535 629.952 231.88"
          fill="white"/>
    <path d="M618.8 224.094C618.8 224.094 608.294 226.338 608.005 228.276C608.005 228.276 616.505 235.535 629.952 231.88"
          stroke="#263238" stroke-linecap="round" stroke-linejoin="round"/>
    <path d="M631.533 230.945C629.901 231.773 628.481 232.965 627.385 234.43C627.385 234.43 631.448 240.448 641.92 237.167"
          fill="white"/>
    <path d="M631.533 230.945C629.901 231.773 628.481 232.965 627.385 234.43C627.385 234.43 631.448 240.448 641.92 237.167"
          stroke="#263238" stroke-linecap="round" stroke-linejoin="round"/>
    <path d="M703.8 222.887L695.572 225.726L691.628 217.481C691.434 217.064 691.091 216.734 690.666 216.558C690.241 216.382 689.765 216.371 689.333 216.529L661.3 226.1C660.844 226.268 660.456 226.579 660.192 226.987C659.928 227.395 659.804 227.877 659.838 228.361L660.569 237.694L613.836 253.793C612.746 254.188 611.843 254.974 611.303 255.999C610.762 257.024 610.623 258.213 610.912 259.335L629.782 330.48C629.914 331.009 630.156 331.505 630.49 331.935C630.825 332.366 631.245 332.722 631.725 332.981C632.205 333.24 632.733 333.396 633.277 333.44C633.82 333.484 634.367 333.413 634.882 333.234L724.795 302.26C725.883 301.862 726.785 301.076 727.328 300.053C727.871 299.03 728.016 297.842 727.736 296.718L708.9 225.658C708.767 225.129 708.526 224.634 708.191 224.202C707.857 223.771 707.437 223.414 706.958 223.154C706.478 222.894 705.95 222.735 705.407 222.689C704.863 222.644 704.316 222.711 703.8 222.887Z"
          fill="#016466"/>
    <mask id="mask6_91_2" style="mask-type:luminance" maskUnits="userSpaceOnUse" x="610" y="216" width="118"
          height="118">
        <path d="M703.8 222.887L695.572 225.726L691.628 217.481C691.434 217.064 691.091 216.734 690.666 216.558C690.241 216.382 689.765 216.371 689.333 216.529L661.3 226.1C660.844 226.268 660.456 226.579 660.192 226.987C659.928 227.395 659.804 227.877 659.838 228.361L660.569 237.694L613.836 253.793C612.746 254.188 611.843 254.974 611.303 255.999C610.762 257.024 610.623 258.213 610.912 259.335L629.782 330.48C629.914 331.009 630.156 331.505 630.49 331.935C630.825 332.366 631.245 332.722 631.725 332.981C632.205 333.24 632.733 333.396 633.277 333.44C633.82 333.484 634.367 333.413 634.882 333.234L724.795 302.26C725.883 301.862 726.785 301.076 727.328 300.053C727.871 299.03 728.016 297.842 727.736 296.718L708.9 225.658C708.767 225.129 708.526 224.634 708.191 224.202C707.857 223.771 707.437 223.414 706.958 223.154C706.478 222.894 705.95 222.735 705.407 222.689C704.863 222.644 704.316 222.711 703.8 222.887Z"
              fill="white"/>
    </mask>
    <g mask="url(#mask6_91_2)">
        <path opacity="0.2"
              d="M703.8 222.887L695.572 225.726L691.628 217.481C691.434 217.064 691.091 216.734 690.666 216.558C690.241 216.382 689.765 216.371 689.333 216.529L661.3 226.1C660.844 226.268 660.456 226.579 660.192 226.987C659.928 227.395 659.804 227.877 659.838 228.361L660.569 237.694L613.836 253.793C612.746 254.188 611.843 254.974 611.303 255.999C610.762 257.024 610.623 258.213 610.912 259.335L629.782 330.48C629.914 331.009 630.156 331.505 630.49 331.935C630.825 332.366 631.245 332.722 631.725 332.981C632.205 333.24 632.733 333.396 633.277 333.44C633.82 333.484 634.367 333.413 634.882 333.234L724.795 302.26C725.883 301.862 726.785 301.076 727.328 300.053C727.871 299.03 728.016 297.842 727.736 296.718L708.9 225.658C708.767 225.129 708.526 224.634 708.191 224.202C707.857 223.771 707.437 223.414 706.958 223.154C706.478 222.894 705.95 222.735 705.407 222.689C704.863 222.644 704.316 222.711 703.8 222.887Z"
              fill="black"/>
    </g>
    <path d="M703.8 222.887L695.572 225.726L691.628 217.481C691.434 217.064 691.091 216.734 690.666 216.558C690.241 216.382 689.765 216.371 689.333 216.529L661.3 226.1C660.844 226.268 660.456 226.579 660.192 226.987C659.928 227.395 659.804 227.877 659.838 228.361L660.569 237.694L613.836 253.793C612.746 254.188 611.843 254.974 611.303 255.999C610.762 257.024 610.623 258.213 610.912 259.335L629.782 330.48C629.914 331.009 630.156 331.505 630.49 331.935C630.825 332.366 631.245 332.722 631.725 332.981C632.205 333.24 632.733 333.396 633.277 333.44C633.82 333.484 634.367 333.413 634.882 333.234L724.795 302.26C725.883 301.862 726.785 301.076 727.328 300.053C727.871 299.03 728.016 297.842 727.736 296.718L708.9 225.658C708.767 225.129 708.526 224.634 708.191 224.202C707.857 223.771 707.437 223.414 706.958 223.154C706.478 222.894 705.95 222.735 705.407 222.689C704.863 222.644 704.316 222.711 703.8 222.887Z"
          stroke="#263238" stroke-linecap="round" stroke-linejoin="round"/>
    <path d="M724.336 302.413L634.423 333.387C633.301 333.739 632.09 333.681 631.006 333.223C629.923 332.766 629.037 331.938 628.507 330.888L628.065 329.987L606.9 286.076L596.411 264.384C596.159 263.902 596.016 263.371 595.991 262.828C595.965 262.285 596.059 261.743 596.264 261.24C596.47 260.737 596.782 260.284 597.181 259.914C597.579 259.544 598.053 259.265 598.57 259.097L688.5 228.14C689.62 227.78 690.832 227.832 691.917 228.287C693.002 228.742 693.888 229.571 694.416 230.622L726.563 297.143C726.813 297.628 726.954 298.163 726.975 298.708C726.996 299.254 726.896 299.797 726.684 300.3C726.471 300.803 726.151 301.253 725.745 301.618C725.339 301.983 724.858 302.255 724.336 302.413Z"
          fill="#016466"/>
    <mask id="mask7_91_2" style="mask-type:luminance" maskUnits="userSpaceOnUse" x="595" y="227" width="132"
          height="107">
        <path d="M724.336 302.413L634.423 333.387C633.301 333.739 632.09 333.681 631.006 333.223C629.923 332.766 629.037 331.938 628.507 330.888L628.065 329.987L606.9 286.076L596.411 264.384C596.159 263.902 596.016 263.371 595.991 262.828C595.965 262.285 596.059 261.743 596.264 261.24C596.47 260.737 596.782 260.284 597.181 259.914C597.579 259.544 598.053 259.265 598.57 259.097L688.5 228.14C689.62 227.78 690.832 227.832 691.917 228.287C693.002 228.742 693.888 229.571 694.416 230.622L726.563 297.143C726.813 297.628 726.954 298.163 726.975 298.708C726.996 299.254 726.896 299.797 726.684 300.3C726.471 300.803 726.151 301.253 725.745 301.618C725.339 301.983 724.858 302.255 724.336 302.413Z"
              fill="white"/>
    </mask>
    <g mask="url(#mask7_91_2)">
        <path opacity="0.2"
              d="M660.11 286.671C659.626 292.562 657.188 298.123 653.185 302.471C649.181 306.819 643.841 309.707 638.01 310.675C636.137 317.752 632.756 324.34 628.099 329.987L606.9 286.076C624.801 289.17 645.405 290.904 660.11 286.671Z"
              fill="black"/>
    </g>
    <path d="M724.336 302.413L634.423 333.387C633.301 333.739 632.09 333.681 631.006 333.223C629.923 332.766 629.037 331.938 628.507 330.888L628.065 329.987L606.9 286.076L596.411 264.384C596.159 263.902 596.016 263.371 595.991 262.828C595.965 262.285 596.059 261.743 596.264 261.24C596.47 260.737 596.782 260.284 597.181 259.914C597.579 259.544 598.053 259.265 598.57 259.097L688.5 228.14C689.62 227.78 690.832 227.832 691.917 228.287C693.002 228.742 693.888 229.571 694.416 230.622L726.563 297.143C726.813 297.628 726.954 298.163 726.975 298.708C726.996 299.254 726.896 299.797 726.684 300.3C726.471 300.803 726.151 301.253 725.745 301.618C725.339 301.983 724.858 302.255 724.336 302.413Z"
          stroke="#263238" stroke-linecap="round" stroke-linejoin="round"/>
    <path d="M660.11 286.654C660.11 286.654 636.786 291.754 614.533 271.728C592.28 251.702 521.033 284.886 521.033 284.886C521.033 284.886 524.433 293.386 536.605 291.686L529.924 298.265C529.924 298.265 535.619 307.377 556.325 299.387L552.704 307.462C552.704 307.462 563.958 311.678 585.004 301.019L582.641 307.819C582.641 307.819 595.425 311.508 611.252 300.526L611.065 306.136C611.065 306.136 624.665 302.583 631.38 296.514C631.38 296.565 649.706 300.764 660.11 286.654Z"
          fill="white"/>
    <mask id="mask8_91_2" style="mask-type:luminance" maskUnits="userSpaceOnUse" x="521" y="265" width="140"
          height="44">
        <path d="M660.11 286.654C660.11 286.654 636.786 291.754 614.533 271.728C592.28 251.702 521.033 284.886 521.033 284.886C521.033 284.886 524.433 293.386 536.605 291.686L529.924 298.265C529.924 298.265 535.619 307.377 556.325 299.387L552.704 307.462C552.704 307.462 563.958 311.678 585.004 301.019L582.641 307.819C582.641 307.819 595.425 311.508 611.252 300.526L611.065 306.136C611.065 306.136 624.665 302.583 631.38 296.514C631.38 296.565 649.706 300.764 660.11 286.654Z"
              fill="white"/>
    </mask>
    <g mask="url(#mask8_91_2)">
        <path opacity="0.4"
              d="M660.11 286.671C649.706 300.764 631.38 296.565 631.38 296.565C624.699 302.634 611.065 306.187 611.065 306.187L611.252 300.56C595.425 311.576 582.641 307.87 582.641 307.87L585.004 301.07C563.958 311.746 552.704 307.513 552.704 307.513L556.325 299.455C535.619 307.428 529.924 298.316 529.924 298.316L536.622 291.737C524.382 293.437 521.016 284.937 521.016 284.937C521.016 284.937 527.816 290.989 539.716 286.637C539.716 286.637 539.393 292.383 552.109 289.119C552.109 289.119 564.111 290.037 570.571 284.121C570.571 284.121 574.889 288.439 583.695 284.478L581.995 289.578C581.995 289.578 584.749 294.593 595.153 288.116L595.272 293.93C595.272 293.93 600.372 296.956 613.887 288.83C613.887 288.83 610.351 293.335 612.34 294.338C614.329 295.341 619.14 294.508 623.016 292.791C623.05 292.791 642.685 299.761 660.11 286.671Z"
              fill="#016466"/>
        <path d="M660.11 286.654C660.11 286.654 636.786 291.754 614.533 271.728C592.28 251.702 521.033 284.886 521.033 284.886C521.033 284.886 524.433 293.386 536.605 291.686L529.924 298.265C529.924 298.265 535.619 307.377 556.325 299.387L552.704 307.462C552.704 307.462 563.958 311.678 585.004 301.019L582.641 307.819C582.641 307.819 595.425 311.508 611.252 300.526L611.065 306.136C611.065 306.136 624.665 302.583 631.38 296.514C631.38 296.565 649.706 300.764 660.11 286.654Z"
              stroke="#263238" stroke-linecap="round" stroke-linejoin="round"/>
        <path d="M550.8 280.024C544 284.444 539.274 285.345 534.701 290.054C534.701 290.054 541.824 295.001 554.183 289.816"
              fill="white"/>
        <path d="M550.8 280.024C544 284.444 539.274 285.345 534.701 290.054C534.701 290.054 541.824 295.001 554.183 289.816"
              stroke="#263238" stroke-linecap="round" stroke-linejoin="round"/>
        <path d="M560.694 290.462C557.721 292.23 554.921 294.274 552.33 296.565C552.33 296.565 557.056 304.538 575.807 293.59"
              stroke="#263238" stroke-linecap="round" stroke-linejoin="round"/>
        <path d="M584.63 293.811L580.023 299.608C587.815 300.059 595.55 298.036 602.123 293.828" stroke="#263238"
              stroke-linecap="round" stroke-linejoin="round"/>
        <path d="M607.971 292.094C607.971 292.094 603.585 298.095 603.976 298.605C604.367 299.115 617.151 299.523 625.532 290.445"
              fill="white"/>
        <path d="M607.971 292.094C607.971 292.094 603.585 298.095 603.976 298.605C604.367 299.115 617.151 299.523 625.532 290.445"
              stroke="#263238" stroke-linecap="round" stroke-linejoin="round"/>
        <path d="M563.924 278.29C560.915 281.01 551.004 286.144 550.834 287.912C550.834 287.912 557.498 296.327 573.223 284.988"
              fill="white"/>
        <path d="M563.924 278.29C560.915 281.01 551.004 286.144 550.834 287.912C550.834 287.912 557.498 296.327 573.223 284.988"
              stroke="#263238" stroke-linecap="round" stroke-linejoin="round"/>
        <path d="M579.411 285.481C577.112 287.456 575.103 289.745 573.444 292.281C573.444 292.281 583.44 299.421 597.244 285.685"
              fill="white"/>
        <path d="M579.411 285.481C577.112 287.456 575.103 289.745 573.444 292.281C573.444 292.281 583.44 299.421 597.244 285.685"
              stroke="#263238" stroke-linecap="round" stroke-linejoin="round"/>
        <path d="M599.267 284.954C598.033 286.1 597.047 287.485 596.369 289.026C595.691 290.567 595.335 292.23 595.323 293.913C595.323 293.913 605.251 296.429 617.423 286.195"
              fill="white"/>
        <path d="M599.267 284.954C598.033 286.1 597.047 287.485 596.369 289.026C595.691 290.567 595.335 292.23 595.323 293.913C595.323 293.913 605.251 296.429 617.423 286.195"
              stroke="#263238" stroke-linecap="round" stroke-linejoin="round"/>
        <path d="M579.496 276.658C579.496 276.658 570.265 282.166 570.622 284.087C570.622 284.087 580.941 288.252 592.552 280.466"
              fill="white"/>
        <path d="M579.496 276.658C579.496 276.658 570.265 282.166 570.622 284.087C570.622 284.087 580.941 288.252 592.552 280.466"
              stroke="#263238" stroke-linecap="round" stroke-linejoin="round"/>
        <path d="M593.759 279.072C592.473 280.372 591.512 281.956 590.954 283.696C590.954 283.696 596.734 288.099 605.591 281.639"
              fill="white"/>
        <path d="M593.759 279.072C592.473 280.372 591.512 281.956 590.954 283.696C590.954 283.696 596.734 288.099 605.591 281.639"
              stroke="#263238" stroke-linecap="round" stroke-linejoin="round"/>
        <path d="M478.244 528.581C480.267 527.901 482.409 527.119 484.636 526.252" stroke="#263238" stroke-width="2"
              stroke-linecap="round" stroke-linejoin="round"/>
    </g>
    <path d="M492.371 523.005C530.723 505.835 586.891 464.695 574.804 397.749C564.842 342.669 519.299 347.582 505.597 358.938C482.358 378.216 478.822 423.538 512.397 433.024C568.157 448.647 610.538 379.032 624.393 352.546"
          stroke="#263238" stroke-width="2" stroke-linecap="round" stroke-linejoin="round"
          stroke-dasharray="7.9 4.94"/>
    <path d="M626.382 348.806C628.303 344.964 629.306 342.669 629.306 342.669" stroke="#263238" stroke-width="2"
          stroke-linecap="round" stroke-linejoin="round"/>
    >
</svg>
